<svg width="56" height="56" viewBox="0 0 56 56" fill="none" xmlns="http://www.w3.org/2000/svg">
<path fill-rule="evenodd" clip-rule="evenodd" d="M27.9994 56C12.5997 56 0 43.4003 0 27.8606C0.139997 12.4609 12.5997 -0.138842 28.1394 0.00115548C43.5391 0.141153 55.9988 12.6009 55.9988 28.2806C55.8588 43.5403 43.3991 56 27.9994 56Z" fill="#0090FF"/>
<path fill-rule="evenodd" clip-rule="evenodd" d="M30.6592 24.6408L29.8193 29.1207L37.7991 30.2407L37.2391 32.3407L29.3993 31.2207C28.8393 33.0406 28.5593 35.0006 27.8593 36.6806C27.1593 38.6405 26.4593 40.6005 25.6193 42.4204C24.4994 44.8004 22.5394 46.4804 19.8795 46.9003C18.3395 47.1803 16.6595 47.0403 15.3996 46.0604C14.9796 45.7804 14.5596 45.2204 14.5596 44.8004C14.5596 44.2404 14.8396 43.5404 15.2596 43.2604C15.5395 43.1204 16.2395 43.2604 16.6595 43.4004C17.0795 43.8204 17.4995 44.3804 17.7795 44.9404C18.6195 46.0604 19.7395 46.2004 20.8594 45.3604C22.1194 44.2404 22.8194 42.7004 23.2394 41.1605C24.0794 37.8005 24.9194 34.5806 25.6193 31.2207V30.6607L18.1995 29.5407L18.4795 27.4408L26.1793 28.5607L27.1593 24.2208L19.1795 22.9608L19.4595 20.7209L27.7193 21.8409C27.9993 21.0009 28.1393 20.3009 28.4193 19.6009C29.1193 17.081 29.8193 14.561 31.4992 12.3211C33.1792 10.0811 35.1391 8.68114 38.0791 8.82114C39.3391 8.82114 40.599 9.24113 41.439 10.2211C41.579 10.3611 41.859 10.6411 41.859 10.9211C41.859 11.4811 41.859 12.1811 41.439 12.6011C40.879 13.021 40.179 12.8811 39.619 12.3211C39.1991 11.9011 38.9191 11.4811 38.4991 11.0611C37.6591 9.94111 36.3991 9.80111 35.4191 10.7811C34.7192 11.4811 34.0192 12.4611 33.5992 13.441C32.6192 16.381 31.9192 19.4609 30.9392 22.5409L38.6391 23.6608L38.0791 25.7608L30.6592 24.6408Z" fill="white"/>
</svg>
