<svg width="57" height="56" viewBox="0 0 57 56" fill="none" xmlns="http://www.w3.org/2000/svg">
<path d="M16.964 31.8757C18.5768 31.8757 20.1449 31.3381 21.4217 30.3525L11.207 20.1377C8.74286 23.3186 9.32528 27.8884 12.5062 30.3525C13.783 31.3157 15.3511 31.8533 16.964 31.8533V31.8757Z" fill="#3E6957"/>
<path d="M47.3164 24.5955C47.3164 22.9826 46.7788 21.4145 45.7931 20.1377L35.5784 30.3525C38.7593 32.8166 43.329 32.2341 45.7931 29.0532C46.7788 27.7764 47.3164 26.2083 47.3164 24.5955Z" fill="#3E6957"/>
<path d="M52.4681 13.4844L47.9433 18.0092C51.5721 22.3772 51.0121 28.8509 46.6441 32.5021C42.8136 35.7053 37.2808 35.7053 33.4504 32.5021L28.4999 37.4525L23.5495 32.5021C19.1815 36.1309 12.7078 35.5709 9.05661 31.2029C5.85339 27.3725 5.85339 21.8396 9.05661 18.0092L6.7494 15.702L4.55418 13.4844C1.88857 17.8524 0.499756 22.87 0.499756 27.9997C0.499756 43.4558 13.0438 55.9999 28.4999 55.9999C43.9561 55.9999 56.5001 43.4558 56.5001 27.9997C56.5225 22.8924 55.0889 17.8524 52.4681 13.4844Z" fill="#3E6957"/>
<path d="M48.7497 8.66847C38.0873 -2.5092 20.3687 -2.93481 9.19107 7.72767C8.85507 8.04127 8.54147 8.35487 8.25027 8.66847C7.55586 9.40768 6.90626 10.1693 6.27905 10.9533L28.5 33.1742L50.721 10.9533C50.1162 10.1469 49.4441 9.38528 48.7497 8.66847ZM28.5 3.65084C35.0408 3.65084 41.1337 6.18206 45.7257 10.7741L28.5 27.9998L11.2743 10.7741C15.8439 6.15966 21.9592 3.65084 28.5 3.65084Z" fill="#3E6957"/>
</svg>
