<svg width="96" height="28" viewBox="0 0 96 28" fill="none" xmlns="http://www.w3.org/2000/svg">
<path fill-rule="evenodd" clip-rule="evenodd" d="M96 3.77173C96 5.85479 94.311 7.54345 92.2274 7.54345C90.1439 7.54345 88.4549 5.85479 88.4549 3.77173C88.4549 1.68866 90.1439 0 92.2274 0C94.311 0 96 1.68866 96 3.77173ZM44.99 9.83056C43.5853 8.28576 41.7993 7.52339 39.592 7.52339C37.9465 7.52339 36.5217 8.00489 35.2776 8.96788C34.0334 9.93087 33.1505 11.255 32.6287 12.9202V7.90457H28.6354V27.3049H32.6287V16.3308C32.6287 14.8261 33.1304 13.6023 34.1538 12.6192C35.1572 11.6362 36.4615 11.1547 38.0669 11.1547C39.4916 11.1547 40.6756 11.6362 41.6388 12.6192C42.602 13.6023 43.0836 14.8462 43.0836 16.3308V27.325H47.0769V15.7289C47.0769 13.3415 46.3746 11.3754 44.99 9.83056ZM21.1906 27.325H25.1839V7.90458H21.1906V27.325ZM59.5384 7.52339C62.6488 7.52339 65.1973 8.64688 67.1438 10.8738C69.0903 13.1007 69.893 15.8092 69.5318 18.9589H53.4582C53.7391 20.5238 54.4615 21.8078 55.6254 22.7708C56.7893 23.7338 58.194 24.2354 59.8395 24.2354C61.1037 24.2354 62.2475 23.9144 63.2508 23.3125C64.2542 22.6905 65.0368 21.8479 65.5786 20.7846L68.9297 22.2692C68.0669 23.9144 66.8428 25.2385 65.2374 26.2215C63.6321 27.2046 61.806 27.7061 59.7191 27.7061C56.8093 27.7061 54.3612 26.7431 52.3746 24.8172C50.3879 22.8912 49.4047 20.5037 49.4047 17.6348C49.4047 14.7659 50.3679 12.3785 52.3144 10.4324C54.2609 8.48638 56.6689 7.52339 59.5384 7.52339ZM59.5384 10.9741C58.0736 10.9741 56.7893 11.4155 55.7257 12.3183C54.6421 13.2211 53.9398 14.3847 53.5786 15.8292H65.5184C65.1973 14.3847 64.495 13.2211 63.4114 12.3183C62.3077 11.4356 61.0234 10.9741 59.5384 10.9741ZM86.2676 9.34907C84.8027 8.12526 82.8963 7.52339 80.5686 7.52339C78.301 7.52339 76.4147 8.06507 74.8696 9.12838C73.3244 10.2117 72.3813 11.6562 72.0201 13.4819L75.9733 14.4248C76.2141 13.2612 76.7358 12.3584 77.5585 11.7566C78.3813 11.1547 79.4248 10.8537 80.5886 10.8537C81.7525 10.8537 82.6957 11.1346 83.4181 11.6964C84.1405 12.2581 84.5017 13.0004 84.5017 13.9434C84.5017 15.0869 83.7993 15.7289 82.3746 15.8493L78.602 16.2305C76.5151 16.4511 74.8094 17.053 73.4649 17.996C72.1204 18.9389 71.4582 20.3633 71.4582 22.2692C71.4582 23.8943 72 25.1983 73.1237 26.2015C74.2274 27.2046 75.6321 27.7061 77.2977 27.7061C80.8896 27.7061 83.2977 25.8403 84.4816 22.1489V27.325H88.4749V14.5853C88.4749 12.3183 87.7324 10.5729 86.2676 9.34907ZM82.7559 22.831C81.612 23.9144 80.2274 24.4761 78.5819 24.4761C77.6187 24.4761 76.8562 24.2354 76.2542 23.814C75.6722 23.3526 75.3913 22.7507 75.3913 21.9884C75.3913 21.226 75.6722 20.6241 76.2542 20.1828C76.8361 19.7414 77.5987 19.4404 78.5619 19.3201L82.2542 18.8586C83.4181 18.7383 84.1605 18.4173 84.4615 17.9157V18.979C84.4615 20.4436 83.8997 21.7476 82.7559 22.831ZM18.4415 27.325H0V7.90458H4.21405V23.5532H18.4415V27.325Z" fill="black"/>
</svg>
