<svg width="150" height="27" viewBox="0 0 150 27" fill="none" xmlns="http://www.w3.org/2000/svg">
<path fill-rule="evenodd" clip-rule="evenodd" d="M122 0V8H120V0H122ZM132 10.9277L136 3.99953L134.268 2.99953L130.268 9.92773L132 10.9277ZM138 19L144.928 15L143.928 13.2679L137 17.268L138 19ZM112 10.9277L108 3.99953L106.268 4.99953L110.268 11.9277L112 10.9277ZM135.927 27C135.2 19.6504 129.192 14 122 14C114.808 14 108.8 19.6504 108.074 27H107.5H106.065H0V25H106.361C107.917 17.5685 114.328 12 122 12C129.672 12 136.083 17.5685 137.64 25H150V27H137.935H137H135.927ZM28.6914 7.2002V22.0002H26.8714V7.2002H28.6914ZM3.48014 21.6602C4.21347 21.9802 5.04014 22.1402 5.96014 22.1402C6.92014 22.1402 7.75347 21.9535 8.46014 21.5802C9.1668 21.2069 9.70014 20.7202 10.0601 20.1202C10.4201 19.5202 10.6001 18.8802 10.6001 18.2002C10.6001 17.3202 10.4001 16.6269 10.0001 16.1202C9.60014 15.6002 9.12014 15.2202 8.56014 14.9802C8.00014 14.7269 7.26014 14.4735 6.34014 14.2202C5.58014 14.0069 4.9868 13.8202 4.56014 13.6602C4.1468 13.4869 3.79347 13.2402 3.50014 12.9202C3.22014 12.6002 3.08014 12.1869 3.08014 11.6802C3.08014 10.9735 3.32014 10.4269 3.80014 10.0402C4.28014 9.64019 4.90014 9.4402 5.66014 9.4402C6.47347 9.4402 7.1268 9.64686 7.62014 10.0602C8.11347 10.4602 8.39347 10.9269 8.46014 11.4602H10.4601C10.3535 10.3802 9.88014 9.51353 9.04014 8.8602C8.21347 8.20686 7.1468 7.88019 5.84014 7.88019C4.93347 7.88019 4.1268 8.04019 3.42014 8.36019C2.7268 8.68019 2.1868 9.13353 1.80014 9.72019C1.41347 10.3069 1.22014 10.9802 1.22014 11.7402C1.22014 12.6069 1.41347 13.3002 1.80014 13.8202C2.20014 14.3269 2.67347 14.7002 3.22014 14.9402C3.78014 15.1802 4.52014 15.4202 5.44014 15.6602C6.1868 15.8602 6.78014 16.0469 7.22014 16.2202C7.66014 16.3935 8.0268 16.6469 8.32014 16.9802C8.61347 17.3135 8.76014 17.7469 8.76014 18.2802C8.76014 18.9602 8.5068 19.5202 8.00014 19.9602C7.5068 20.3869 6.8268 20.6002 5.96014 20.6002C5.05347 20.6002 4.36014 20.3802 3.88014 19.9402C3.41347 19.4869 3.1468 18.9335 3.08014 18.2802H1.14014C1.15347 19.0402 1.3668 19.7135 1.78014 20.3002C2.19347 20.8735 2.76014 21.3269 3.48014 21.6602ZM15.6584 21.4802C16.4984 21.9469 17.4318 22.1802 18.4584 22.1802C19.4984 22.1802 20.4451 21.9469 21.2984 21.4802C22.1518 21.0135 22.8251 20.3535 23.3184 19.5002C23.8251 18.6335 24.0784 17.6335 24.0784 16.5002C24.0784 15.3669 23.8318 14.3735 23.3384 13.5202C22.8584 12.6669 22.1984 12.0135 21.3584 11.5602C20.5184 11.0935 19.5784 10.8602 18.5384 10.8602C17.4984 10.8602 16.5584 11.0935 15.7184 11.5602C14.8784 12.0135 14.2118 12.6735 13.7184 13.5402C13.2384 14.3935 12.9984 15.3802 12.9984 16.5002C12.9984 17.6335 13.2318 18.6335 13.6984 19.5002C14.1784 20.3535 14.8318 21.0135 15.6584 21.4802ZM20.2984 20.1202C19.7251 20.4269 19.1118 20.5802 18.4584 20.5802C17.8051 20.5802 17.2051 20.4335 16.6584 20.1402C16.1118 19.8335 15.6718 19.3735 15.3384 18.7602C15.0184 18.1469 14.8584 17.3935 14.8584 16.5002C14.8584 15.6202 15.0251 14.8735 15.3584 14.2602C15.6918 13.6469 16.1318 13.1935 16.6784 12.9002C17.2384 12.5935 17.8518 12.4402 18.5184 12.4402C19.1718 12.4402 19.7784 12.5935 20.3384 12.9002C20.8984 13.1935 21.3518 13.6469 21.6984 14.2602C22.0451 14.8735 22.2184 15.6202 22.2184 16.5002C22.2184 17.3802 22.0384 18.1269 21.6784 18.7402C21.3318 19.3535 20.8718 19.8135 20.2984 20.1202ZM32.1933 13.5402C31.7399 14.3802 31.5133 15.3602 31.5133 16.4802C31.5133 17.5869 31.7399 18.5735 32.1933 19.4402C32.6466 20.3069 33.2666 20.9802 34.0533 21.4602C34.8399 21.9402 35.7199 22.1802 36.6933 22.1802C37.6399 22.1802 38.4666 21.9735 39.1733 21.5602C39.8933 21.1335 40.4333 20.6002 40.7933 19.9602V22.0002H42.6333V11.0402H40.7933V13.0402C40.4466 12.4135 39.9199 11.8935 39.2133 11.4802C38.5066 11.0669 37.6733 10.8602 36.7133 10.8602C35.7399 10.8602 34.8533 11.0935 34.0533 11.5602C33.2666 12.0269 32.6466 12.6869 32.1933 13.5402ZM40.2933 14.3402C40.6266 14.9535 40.7933 15.6735 40.7933 16.5002C40.7933 17.3269 40.6266 18.0535 40.2933 18.6802C39.9599 19.2935 39.5066 19.7669 38.9333 20.1002C38.3733 20.4202 37.7533 20.5802 37.0733 20.5802C36.3933 20.5802 35.7733 20.4202 35.2133 20.1002C34.6533 19.7669 34.2066 19.2935 33.8733 18.6802C33.5399 18.0535 33.3733 17.3202 33.3733 16.4802C33.3733 15.6535 33.5399 14.9335 33.8733 14.3202C34.2066 13.7069 34.6533 13.2402 35.2133 12.9202C35.7733 12.6002 36.3933 12.4402 37.0733 12.4402C37.7533 12.4402 38.3733 12.6069 38.9333 12.9402C39.5066 13.2602 39.9599 13.7269 40.2933 14.3402ZM47.9289 12.8202C48.2489 12.1935 48.7022 11.7069 49.2889 11.3602C49.8889 11.0135 50.6156 10.8402 51.4689 10.8402V12.7202H50.9889C48.9489 12.7202 47.9289 13.8269 47.9289 16.0402V22.0002H46.1089V11.0402H47.9289V12.8202ZM63.1098 22.0002H64.9298V8.0402H63.1098V19.1202L55.7898 8.0402H53.9698V22.0002H55.7898V10.9002L63.1098 22.0002ZM73.2123 22.1802C72.1857 22.1802 71.2523 21.9469 70.4123 21.4802C69.5857 21.0135 68.9323 20.3535 68.4523 19.5002C67.9857 18.6335 67.7523 17.6335 67.7523 16.5002C67.7523 15.3802 67.9923 14.3935 68.4723 13.5402C68.9657 12.6735 69.6323 12.0135 70.4723 11.5602C71.3123 11.0935 72.2523 10.8602 73.2923 10.8602C74.3323 10.8602 75.2723 11.0935 76.1123 11.5602C76.9523 12.0135 77.6123 12.6669 78.0923 13.5202C78.5857 14.3735 78.8323 15.3669 78.8323 16.5002C78.8323 17.6335 78.579 18.6335 78.0723 19.5002C77.579 20.3535 76.9057 21.0135 76.0523 21.4802C75.199 21.9469 74.2523 22.1802 73.2123 22.1802ZM73.2123 20.5802C73.8657 20.5802 74.479 20.4269 75.0523 20.1202C75.6257 19.8135 76.0857 19.3535 76.4323 18.7402C76.7923 18.1269 76.9723 17.3802 76.9723 16.5002C76.9723 15.6202 76.799 14.8735 76.4523 14.2602C76.1057 13.6469 75.6523 13.1935 75.0923 12.9002C74.5323 12.5935 73.9257 12.4402 73.2723 12.4402C72.6057 12.4402 71.9923 12.5935 71.4323 12.9002C70.8857 13.1935 70.4457 13.6469 70.1123 14.2602C69.779 14.8735 69.6123 15.6202 69.6123 16.5002C69.6123 17.3935 69.7723 18.1469 70.0923 18.7602C70.4257 19.3735 70.8657 19.8335 71.4123 20.1402C71.959 20.4335 72.559 20.5802 73.2123 20.5802ZM81.6253 13.5402C81.172 14.3802 80.9453 15.3602 80.9453 16.4802C80.9453 17.5869 81.172 18.5735 81.6253 19.4402C82.0786 20.3069 82.6986 20.9802 83.4853 21.4602C84.2853 21.9402 85.172 22.1802 86.1453 22.1802C87.092 22.1802 87.9186 21.9735 88.6253 21.5602C89.332 21.1335 89.8653 20.5935 90.2253 19.9402V22.0002H92.0653V7.2002H90.2253V13.0002C89.8386 12.3602 89.2786 11.8469 88.5453 11.4602C87.812 11.0602 87.0186 10.8602 86.1653 10.8602C85.1786 10.8602 84.2853 11.0935 83.4853 11.5602C82.6986 12.0269 82.0786 12.6869 81.6253 13.5402ZM89.7253 14.3402C90.0586 14.9535 90.2253 15.6735 90.2253 16.5002C90.2253 17.3269 90.0586 18.0535 89.7253 18.6802C89.392 19.2935 88.9386 19.7669 88.3653 20.1002C87.8053 20.4202 87.1853 20.5802 86.5053 20.5802C85.8253 20.5802 85.2053 20.4202 84.6453 20.1002C84.0853 19.7669 83.6386 19.2935 83.3053 18.6802C82.972 18.0535 82.8053 17.3202 82.8053 16.4802C82.8053 15.6535 82.972 14.9335 83.3053 14.3202C83.6386 13.7069 84.0853 13.2402 84.6453 12.9202C85.2053 12.6002 85.8253 12.4402 86.5053 12.4402C87.1853 12.4402 87.8053 12.6069 88.3653 12.9402C88.9386 13.2602 89.392 13.7269 89.7253 14.3402ZM105.541 16.1002C105.541 16.4469 105.521 16.8135 105.481 17.2002H96.7209C96.7876 18.2802 97.1543 19.1269 97.8209 19.7402C98.5009 20.3402 99.3209 20.6402 100.281 20.6402C101.068 20.6402 101.721 20.4602 102.241 20.1002C102.774 19.7269 103.148 19.2335 103.361 18.6202H105.321C105.028 19.6735 104.441 20.5335 103.561 21.2002C102.681 21.8535 101.588 22.1802 100.281 22.1802C99.2409 22.1802 98.3076 21.9469 97.4809 21.4802C96.6676 21.0135 96.0276 20.3535 95.5609 19.5002C95.0942 18.6335 94.8609 17.6335 94.8609 16.5002C94.8609 15.3669 95.0876 14.3735 95.5409 13.5202C95.9942 12.6669 96.6276 12.0135 97.4409 11.5602C98.2676 11.0935 99.2142 10.8602 100.281 10.8602C101.321 10.8602 102.241 11.0869 103.041 11.5402C103.841 11.9935 104.454 12.6202 104.881 13.4202C105.321 14.2069 105.541 15.1002 105.541 16.1002ZM103.661 15.7202C103.661 15.0269 103.508 14.4335 103.201 13.9402C102.894 13.4335 102.474 13.0535 101.941 12.8002C101.421 12.5335 100.841 12.4002 100.201 12.4002C99.2809 12.4002 98.4942 12.6935 97.8409 13.2802C97.2009 13.8669 96.8342 14.6802 96.7409 15.7202H103.661Z" fill="#0C0C0C"/>
</svg>
