<svg width="32" height="32" viewBox="0 0 32 32" fill="none" xmlns="http://www.w3.org/2000/svg">
<path d="M27.5305 3.56543L17.5367 10.9879L19.3848 6.60874L27.5305 3.56543Z" fill="#E2761B" stroke="#E2761B" stroke-linecap="round" stroke-linejoin="round"/>
<path d="M4.45952 3.56543L14.3729 11.0582L12.6152 6.60874L4.45952 3.56543ZM23.9347 20.7707L21.2731 24.8485L26.968 26.4154L28.6052 20.8611L23.9347 20.7707ZM3.40491 20.8611L5.03203 26.4154L10.7269 24.8485L8.0653 20.7707L3.40491 20.8611Z" fill="#E4761B" stroke="#E4761B" stroke-linecap="round" stroke-linejoin="round"/>
<path d="M10.4055 13.881L8.8186 16.2815L14.4733 16.5326L14.2725 10.456L10.4055 13.881ZM21.5845 13.881L17.6673 10.3857L17.5367 16.5326L23.1814 16.2815L21.5845 13.881ZM10.727 24.849L14.1218 23.1918L11.189 20.9018L10.727 24.849ZM17.8682 23.1918L21.2731 24.849L20.801 20.9018L17.8682 23.1918Z" fill="#E4761B" stroke="#E4761B" stroke-linecap="round" stroke-linejoin="round"/>
<path d="M21.2731 24.8487L17.8682 23.1914L18.1394 25.4111L18.1092 26.3452L21.2731 24.8487ZM10.7269 24.8487L13.8908 26.3452L13.8707 25.4111L14.1218 23.1914L10.7269 24.8487Z" fill="#D7C1B3" stroke="#D7C1B3" stroke-linecap="round" stroke-linejoin="round"/>
<path d="M13.941 19.4351L11.1086 18.6015L13.1074 17.6875L13.941 19.4351ZM18.049 19.4351L18.8827 17.6875L20.8914 18.6015L18.049 19.4351Z" fill="#233447" stroke="#233447" stroke-linecap="round" stroke-linejoin="round"/>
<path d="M10.727 24.8487L11.2091 20.7709L8.06531 20.8613L10.727 24.8487ZM20.791 20.7709L21.2731 24.8487L23.9347 20.8613L20.791 20.7709ZM23.1814 16.2812L17.5367 16.5323L18.059 19.435L18.8927 17.6874L20.9015 18.6014L23.1814 16.2812ZM11.1086 18.6014L13.1174 17.6874L13.941 19.435L14.4733 16.5323L8.8186 16.2812L11.1086 18.6014Z" fill="#CD6116" stroke="#CD6116" stroke-linecap="round" stroke-linejoin="round"/>
<path d="M8.8186 16.2812L11.189 20.9015L11.1086 18.6014L8.8186 16.2812ZM20.9015 18.6014L20.801 20.9015L23.1814 16.2812L20.9015 18.6014ZM14.4733 16.5323L13.941 19.435L14.6039 22.86L14.7546 18.3503L14.4733 16.5323ZM17.5367 16.5323L17.2656 18.3403L17.3861 22.86L18.059 19.435L17.5367 16.5323Z" fill="#E4751F" stroke="#E4751F" stroke-linecap="round" stroke-linejoin="round"/>
<path d="M18.0591 19.4352L17.3861 22.8602L17.8682 23.1916L20.801 20.9016L20.9015 18.6016L18.0591 19.4352ZM11.1086 18.6016L11.189 20.9016L14.1218 23.1916L14.6039 22.8602L13.941 19.4352L11.1086 18.6016Z" fill="#F6851B" stroke="#F6851B" stroke-linecap="round" stroke-linejoin="round"/>
<path d="M18.1092 26.3452L18.1394 25.4111L17.8883 25.1901H14.1017L13.8707 25.4111L13.8908 26.3452L10.7269 24.8486L11.8318 25.7526L14.0716 27.3094H17.9184L20.1682 25.7526L21.2731 24.8486L18.1092 26.3452Z" fill="#C0AD9E" stroke="#C0AD9E" stroke-linecap="round" stroke-linejoin="round"/>
<path d="M17.8682 23.1918L17.3861 22.8604H14.6039L14.1218 23.1918L13.8707 25.4115L14.1017 25.1905H17.8883L18.1394 25.4115L17.8682 23.1918Z" fill="#161616" stroke="#161616" stroke-linecap="round" stroke-linejoin="round"/>
<path d="M27.9523 11.47L28.806 7.37208L27.5304 3.56543L17.8682 10.7368L21.5844 13.8806L26.8374 15.4173L28.0025 14.0613L27.5003 13.6998L28.3038 12.9666L27.6811 12.4845L28.4846 11.8718L27.9523 11.47ZM3.19397 7.37208L4.0477 11.47L3.50533 11.8718L4.30885 12.4845L3.69617 12.9666L4.49968 13.6998L3.99749 14.0613L5.15254 15.4173L10.4055 13.8806L14.1218 10.7368L4.45951 3.56543L3.19397 7.37208Z" fill="#763D16" stroke="#763D16" stroke-linecap="round" stroke-linejoin="round"/>
<path d="M26.8374 15.4179L21.5844 13.8812L23.1814 16.2817L20.801 20.9019L23.9347 20.8617H28.6052L26.8374 15.4179ZM10.4055 13.8812L5.15255 15.4179L3.40491 20.8617H8.0653L11.189 20.9019L8.81859 16.2817L10.4055 13.8812ZM17.5367 16.5328L17.8682 10.7374L19.3949 6.60938H12.6152L14.1218 10.7374L14.4733 16.5328L14.5939 18.3608L14.6039 22.8605H17.3861L17.4062 18.3608L17.5367 16.5328Z" fill="#F6851B" stroke="#F6851B" stroke-linecap="round" stroke-linejoin="round"/>
</svg>
