<svg width="84" height="84" viewBox="0 0 84 84" fill="none" xmlns="http://www.w3.org/2000/svg">
<g clip-path="url(#clip0_1115_20500)">
<path d="M60 18H24C20.6863 18 18 20.6863 18 24V60C18 63.3137 20.6863 66 24 66H60C63.3137 66 66 63.3137 66 60V24C66 20.6863 63.3137 18 60 18Z" stroke="black" stroke-width="6" stroke-linecap="round" stroke-linejoin="round"/>
<path d="M30 18V3M54 18V3M18 54H3M18 30H3M54 66V81M30 66V81M66 30H81M66 54H81M51 45H39" stroke="black" stroke-width="6" stroke-linecap="round" stroke-linejoin="round"/>
</g>
<defs>
<clipPath id="clip0_1115_20500">
<rect width="84" height="84" fill="white"/>
</clipPath>
</defs>
</svg>
